<svg width="25" height="24" viewBox="0 0 25 24" fill="none" xmlns="http://www.w3.org/2000/svg">
<path d="M12.5045 5.4C14.6045 5.4 16.6045 6.2 18.1045 7.7C21.2045 10.8 21.2045 15.9 18.1045 19C16.3045 20.9 13.8045 21.6 11.4045 21.3L11.9045 19.3C13.6045 19.5 15.4045 18.9 16.7045 17.6C19.0045 15.3 19.0045 11.5 16.7045 9.1C15.6045 8 14.0045 7.4 12.5045 7.4V12L7.50455 7L12.5045 2V5.4ZM6.80455 19C4.20455 16.4 3.80455 12.4 5.60455 9.3L7.10455 10.8C6.00455 13 6.40455 15.8 8.30455 17.6C8.80455 18.1 9.40455 18.5 10.1045 18.8L9.50455 20.8C8.50455 20.4 7.60455 19.8 6.80455 19Z" fill="#F4F4F4" fill-opacity="0.5"/>
</svg>
